<?xml version="1.0" standalone="no"?>
<!DOCTYPE svg PUBLIC "-//W3C//DTD SVG 20010904//EN"
 "http://www.w3.org/TR/2001/REC-SVG-20010904/DTD/svg10.dtd">
<svg version="1.0" xmlns="http://www.w3.org/2000/svg"
 width="198.000000pt" height="198.000000pt" viewBox="0 0 198.000000 198.000000"
 preserveAspectRatio="xMidYMid meet">

<g transform="translate(0.000000,198.000000) scale(0.100000,-0.100000)"
fill="#000000" stroke="none">
<path d="M0 990 l0 -990 990 0 990 0 0 990 0 990 -990 0 -990 0 0 -990z m1033
567 c29 -49 37 -75 37 -111 0 -39 7 -57 40 -103 37 -53 40 -61 40 -125 0 -60
-2 -68 -19 -68 -10 0 -24 7 -31 15 -7 8 -17 15 -22 15 -5 0 -16 -7 -24 -15
-10 -9 -34 -15 -64 -15 -30 0 -54 6 -64 15 -8 8 -19 15 -24 15 -5 0 -15 -7
-22 -15 -7 -8 -21 -15 -31 -15 -17 0 -19 8 -19 67 0 62 3 71 40 124 33 47 40
65 40 105 0 36 8 62 37 111 20 34 40 63 43 63 3 0 23 -29 43 -63z m-33 -447
c0 -5 -4 -10 -10 -10 -5 0 -10 5 -10 10 0 6 5 10 10 10 6 0 10 -4 10 -10z
m-94 -95 c14 -14 33 -25 42 -25 10 0 23 -5 30 -12 9 -9 15 -9 24 0 7 7 20 12
30 12 9 0 28 11 42 25 16 16 36 25 56 25 29 0 37 -6 87 -62 7 -7 19 -19 28
-27 9 -7 15 -22 12 -32 -4 -15 0 -19 24 -19 16 0 29 -4 29 -10 0 -6 -114 -10
-321 -10 -211 0 -318 3 -314 10 3 6 17 10 30 10 18 0 22 4 18 19 -3 10 3 25
12 32 9 8 21 20 28 27 50 56 58 62 87 62 20 0 40 -9 56 -25z m94 5 c0 -5 -4
-10 -10 -10 -5 0 -10 5 -10 10 0 6 5 10 10 10 6 0 10 -4 10 -10z m-499 -251
c15 -7 24 -7 35 2 12 10 14 5 14 -30 0 -22 -4 -41 -10 -41 -5 0 -10 6 -10 13
0 23 -46 59 -72 55 -51 -7 -77 -142 -43 -224 12 -30 19 -35 42 -32 26 3 28 6
31 57 2 37 -1 57 -10 62 -8 5 12 8 47 8 33 0 54 -3 48 -6 -9 -3 -13 -27 -13
-68 0 -35 -4 -66 -8 -69 -5 -3 -20 1 -35 9 -22 11 -28 11 -38 -1 -17 -21 -62
-17 -94 8 -73 57 -73 189 0 246 30 24 83 29 116 11z m907 -22 c2 -9 -4 -20
-13 -23 -20 -8 -50 19 -40 36 10 17 49 8 53 -13z m-730 -67 c2 -6 13 -3 25 5
28 19 67 19 95 -1 20 -13 22 -24 22 -94 0 -53 4 -80 13 -84 6 -3 -6 -4 -28 -3
l-40 2 -5 82 c-6 94 -19 116 -50 88 -17 -15 -20 -31 -20 -91 0 -48 4 -74 13
-77 6 -3 -13 -5 -43 -5 -30 0 -49 2 -42 5 8 3 12 30 12 87 0 52 -5 87 -12 95
-11 11 -7 13 22 7 19 -4 36 -11 38 -16z m373 -9 c23 -24 29 -38 29 -75 0 -60
-30 -95 -86 -103 -81 -11 -135 49 -120 132 15 76 119 103 177 46z m189 19 c13
-7 21 -7 25 0 13 21 25 9 25 -25 0 -41 -11 -45 -30 -10 -16 29 -58 44 -70 25
-13 -21 0 -39 39 -59 20 -11 45 -28 55 -40 47 -51 -31 -112 -106 -83 -23 8
-35 9 -45 1 -10 -9 -13 -4 -13 25 0 42 12 47 28 11 11 -25 52 -42 71 -30 22
13 11 46 -20 63 -56 31 -79 53 -79 77 0 44 72 71 120 45z m160 0 c11 -7 16
-34 20 -100 l5 -90 -40 0 -40 0 0 100 c0 93 1 100 20 100 11 0 27 -5 35 -10z
m190 0 c13 -7 21 -7 25 0 13 21 25 9 25 -25 0 -41 -11 -45 -30 -10 -22 42 -70
45 -70 5 0 -12 13 -26 33 -36 70 -36 97 -85 62 -114 -21 -18 -89 -24 -114 -10
-17 9 -26 9 -37 -1 -12 -10 -14 -6 -14 25 0 42 12 47 28 11 11 -25 52 -42 71
-30 22 13 11 46 -20 63 -56 31 -79 53 -79 77 0 44 72 71 120 45z m-1002 -294
c5 -26 -15 -43 -30 -27 -11 10 -10 11 5 6 13 -6 17 -2 17 15 0 16 -4 20 -16
16 -9 -3 -12 -2 -9 5 10 15 29 6 33 -15z m329 -23 c-3 -10 -5 -2 -5 17 0 19 2
27 5 18 2 -10 2 -26 0 -35z m305 18 c2 -17 1 -28 -4 -25 -8 5 -12 54 -4 54 2
0 6 -13 8 -29z m-216 0 c0 -11 -5 -17 -13 -14 -17 6 -17 20 0 26 6 3 12 6 12
6 1 1 1 -7 1 -18z m377 4 c-3 -9 -8 -14 -10 -11 -3 3 -2 9 2 15 9 16 15 13 8
-4z m-703 -15 c-9 -6 -9 -9 -1 -13 7 -3 7 -5 -1 -3 -7 1 -14 10 -16 19 -3 12
1 15 13 11 12 -5 13 -9 5 -14z m63 1 c5 -19 -15 -23 -30 -6 -4 4 -2 5 5 1 7
-4 12 -1 12 8 0 22 7 20 13 -3z m37 15 c0 -3 -4 -8 -10 -11 -5 -3 -10 -1 -10
4 0 6 5 11 10 11 6 0 10 -2 10 -4z m17 -28 c-3 -7 -5 -2 -5 12 0 14 2 19 5 13
2 -7 2 -19 0 -25z m73 2 c5 0 11 5 13 10 3 6 4 5 3 -2 -4 -18 -30 -16 -32 2 0
9 1 10 3 3 3 -7 8 -13 13 -13z m167 8 c-3 -8 -6 -5 -6 6 -1 11 2 17 5 13 3 -3
4 -12 1 -19z m117 6 c3 -8 2 -12 -4 -9 -6 3 -10 10 -10 16 0 14 7 11 14 -7z
m217 -14 c5 0 9 -4 9 -8 0 -5 -7 -9 -15 -9 -10 0 -15 9 -14 26 1 17 3 20 6 9
2 -10 9 -18 14 -18z m59 18 c0 -4 -6 -8 -12 -8 -9 0 -8 -4 2 -11 13 -9 13 -10
0 -6 -20 5 -25 34 -5 34 8 0 15 -4 15 -9z m-240 -8 c0 -5 -5 -10 -11 -10 -5 0
-7 5 -4 10 3 6 8 10 11 10 2 0 4 -4 4 -10z m76 3 c-15 -4 -16 -7 -5 -15 12 -8
12 -9 0 -6 -25 7 -24 28 1 27 19 -1 20 -2 4 -6z m-631 -21 c-3 -3 -11 0 -18 7
-9 10 -8 11 6 5 10 -3 15 -9 12 -12z m485 12 c0 -8 -19 -13 -24 -6 -3 5 1 9 9
9 8 0 15 -2 15 -3z m205 -4 c-3 -5 -12 -10 -18 -10 -7 0 -6 4 3 10 19 12 23
12 15 0z"/>
<path d="M960 1543 c-13 -22 -17 -39 -11 -42 11 -7 80 -6 87 2 6 6 -36 77 -46
77 -4 0 -18 -16 -30 -37z"/>
<path d="M930 1375 c0 -87 3 -105 15 -105 12 0 15 18 15 105 0 87 -3 105 -15
105 -12 0 -15 -18 -15 -105z"/>
<path d="M978 1375 c-2 -79 0 -105 10 -105 9 0 12 28 12 105 0 59 -4 105 -9
105 -6 0 -11 -47 -13 -105z"/>
<path d="M1027 1473 c-4 -3 -7 -51 -7 -105 0 -80 3 -98 15 -98 12 0 15 18 15
105 0 96 -5 117 -23 98z"/>
<path d="M873 1316 c-24 -36 -33 -61 -33 -92 0 -53 9 -59 44 -31 26 21 27 26
24 97 l-3 75 -32 -49z"/>
<path d="M1070 1286 c0 -71 2 -76 29 -95 35 -25 41 -20 41 34 0 30 -9 55 -31
88 -17 26 -33 47 -35 47 -2 0 -4 -33 -4 -74z"/>
<path d="M930 1235 c0 -12 13 -15 60 -15 47 0 60 3 60 15 0 12 -13 15 -60 15
-47 0 -60 -3 -60 -15z"/>
<path d="M933 1188 c2 -8 23 -13 57 -13 34 0 55 5 58 13 3 9 -13 12 -58 12
-45 0 -61 -3 -57 -12z"/>
<path d="M807 1002 c-10 -10 -17 -31 -17 -45 0 -28 -15 -37 -23 -14 -3 9 -7 9
-17 0 -7 -6 -10 -19 -7 -27 6 -14 38 -16 247 -16 209 0 241 2 247 16 3 8 0 21
-7 27 -10 9 -14 9 -17 0 -8 -23 -23 -13 -23 15 0 35 -27 62 -62 62 -25 0 -58
-27 -58 -48 0 -7 -11 -9 -31 -5 -25 5 -31 2 -36 -16 -3 -11 -9 -21 -13 -21 -4
0 -10 10 -13 21 -5 18 -11 21 -36 16 -22 -5 -31 -3 -31 7 0 40 -74 60 -103 28z"/>
<path d="M950 671 c-13 -25 -13 -112 0 -145 11 -31 35 -34 50 -7 14 27 13 144
-2 159 -18 18 -36 15 -48 -7z"/>
</g>
</svg>
